#!OML:ASF F:\VICON\USERDATA\INSTALL\rory3\rory3.ASF
:FULLY-SPECIFIED
:DEGREES
676
root 2.8339 16.6346 8.32746 -4.90627 22.8389 2.69204
lowerback 6.12136 -8.61923 -6.40061
upperback -1.05543 -11.8282 5.20612
thorax -2.09414 -5.83104 9.72122
lowerneck -5.26165 -6.44 -12.8176
upperneck 20.5006 -9.67272 11.3184
head 8.37219 -4.6399 5.04947
rclavicle -1.20563e-013 -5.24792e-014
rhumerus -46.5883 -29.8825 -34.0757
rradius 34.1634
rwrist -22.0932
rhand -20.488 13.1495
rfingers 7.12502
rthumb 5.86868 -16.7492
lclavicle -1.20563e-013 -5.24792e-014
lhumerus 24.284 -70.9753 83.9308
lradius 46.5537
lwrist -4.0973
lhand -2.80488 26.956
lfingers 7.12502
lthumb 22.9012 -304.384
rfemur -31.2666 5.82024 27.0294
rtibia 42.1247
rfoot 1.41399 6.86412
rtoes 31.7092
lfemur 1.54711 2.19468 -31.5419
ltibia 45.7823
lfoot -21.5397 -9.7239
ltoes 15.2303
677
root 2.82229 16.6229 8.33705 -5.12777 23.5605 2.43624
lowerback 6.13666 -8.60992 -6.11849
upperback -0.846072 -11.7939 5.148
thorax -1.95768 -5.83029 9.48788
lowerneck -4.8994 -6.58625 -13.217
upperneck 19.9547 -9.93356 11.8763
head 8.20773 -4.76083 5.28292
rclavicle 6.52014e-014 4.13472e-014
rhumerus -45.1042 -29.6032 -35.1218
rradius 35.4791
rwrist -24.0933
rhand -21.219 13.4178
rfingers 7.12502
rthumb 5.16288 -16.4993
lclavicle 6.52014e-014 4.13472e-014
lhumerus 20.0218 -67.8936 87.1242
lradius 44.6723
lwrist -5.98147
lhand -2.1745 27.6164
lfingers 7.12502
lthumb 23.506 -303.8
rfemur -31.2679 5.27889 27.1937
rtibia 42.347
rfoot 1.53237 6.52838
rtoes 33.3713
lfemur 1.7205 1.67008 -31.2621
ltibia 45.9739
lfoot -21.7111 -9.71863
ltoes 14.7215
678
root 2.84197 16.5736 8.38825 -5.79905 25.2505 4.76534
lowerback 7.0508 -8.68728 -8.31502
upperback -0.198448 -12.1453 4.25345
thorax -1.45915 -6.03664 9.80904
lowerneck -4.86246 -6.81151 -13.3816
upperneck 19.633 -10.2179 11.9648
head 8.14893 -4.90123 5.30388
rclavicle 5.59579e-014 -2.06736e-014
rhumerus -43.5427 -29.2166 -36.2291
rradius 36.8385
rwrist -25.8225
rhand -21.6321 13.7821
rfingers 7.12502
rthumb 4.764 -16.1444
lclavicle 5.59579e-014 -2.06736e-014
lhumerus 16.6622 -64.8108 89.5281
lradius 42.812
lwrist -6.76632
lhand -3.21802 28.9028
lfingers 7.12502
lthumb 22.5047 -302.389
rfemur -29.6859 2.88291 24.751
rtibia 42.8039
rfoot 0.933911 7.52672
rtoes 33.011
lfemur 4.06488 0.820089 -33.839
ltibia 45.7854
lfoot -22.1307 -9.56217
ltoes 14.3848
679
root 2.78188 16.5958 8.36384 -5.92627 23.9802 1.49962
lowerback 6.29275 -8.31305 -5.28149
upperback -0.407038 -11.3335 5.16967
thorax -1.83163 -5.62467 9.04123
lowerneck -4.67419 -6.97575 -13.5083
upperneck 19.4655 -10.4336 11.9464
head 8.09677 -5.02047 5.29653
rclavicle -6.09275e-014 -9.54166e-015
rhumerus -42.023 -28.9913 -37.0761
rradius 37.7127
rwrist -26.4285
rhand -21.3982 14.2952
rfingers 7.12502
rthumb 4.98991 -15.626
lclavicle -6.09275e-014 -9.54166e-015
lhumerus 13.4062 -61.1901 91.7461
lradius 40.7537
lwrist -8.24185
lhand -3.66513 29.9313
lfingers 7.12502
lthumb 22.0755 -301.309
rfemur -30.9764 5.19943 28.1741
rtibia 42.6371
rfoot 1.19798 6.70029
rtoes 31.0507
lfemur 2.13673 1.56855 -30.0673
ltibia 46.3003
lfoot -22.1554 -10.2265
ltoes 14.7322
680
root 2.74815 16.6198 8.40385 -5.94506 24.4717 1.45199
lowerback 5.16581 -8.29454 -5.58809
upperback 0.359546 -11.3036 5.1041
thorax -0.365722 -5.7028 8.85247
lowerneck -4.81791 -7.09962 -13.6842
upperneck 18.8003 -10.5886 12.3941
head 7.95909 -5.06739 5.44825
rclavicle -6.7885e-014 6.36111e-015
rhumerus -39.8105 -29.6546 -38.2599
rradius 38.3637
rwrist -26.2613
rhand -20.9048 14.6403
rfingers 7.12502
rthumb 5.46631 -15.2692
lclavicle -6.7885e-014 6.36111e-015
lhumerus 13.0665 -57.5153 91.1716
lradius 38.6891
lwrist -9.63227
lhand -4.48205 31.0021
lfingers 7.12502
lthumb 21.291 -300.147
rfemur -30.8682 5.393 28.1737
rtibia 42.7028
rfoot 1.22088 6.18437
rtoes 31.2411
lfemur 2.25738 1.50359 -29.6704
ltibia 46.2899
lfoot -22.0986 -10.9812
ltoes 15.876
681
root 2.71377 16.619 8.42141 -6.12292 25.0742 1.55875
lowerback 6.12576 -8.16197 -5.34066
upperback -0.313957 -11.1397 4.74337
thorax -1.75447 -5.52949 8.58474
lowerneck -3.48984 -7.05246 -13.9981
upperneck 19.0212 -10.733 12.6841
head 7.84389 -5.18613 5.63348
rclavicle 3.14577e-014 -2.06736e-014
rhumerus -39.9843 -27.7292 -38.6127
rradius 39.8237
rwrist -26.9672
rhand -20.3791 14.6773
rfingers 7.12502
rthumb 5.97382 -15.2185
lclavicle 3.14577e-014 -2.06736e-014
lhumerus 8.52183 -53.404 94.2958
lradius 36.5308
lwrist -11.6301
lhand -5.46119 31.9259
lfingers 7.12502
lthumb 20.3502 -299.12
rfemur -30.5576 5.32172 27.9932
rtibia 42.4191
rfoot 1.55776 5.82347
rtoes 31.1696
lfemur 2.33557 1.24065 -29.5784
ltibia 46.6786
lfoot -22.2112 -11.3876
ltoes 16.22
682
root 2.68495 16.6179 8.42911 -6.22789 25.7075 1.73112
lowerback 5.70664 -8.24171 -5.69206
upperback 0.368813 -11.2619 4.62409
thorax -0.742866 -5.6581 8.50048
lowerneck -4.25675 -7.21129 -13.933
upperneck 18.8075 -10.8371 12.6635
head 7.92491 -5.20257 5.57352
rclavicle 6.70153e-014 -1.43125e-014
rhumerus -37.674 -27.5047 -40.1816
rradius 41.0999
rwrist -27.1477
rhand -19.8399 14.7811
rfingers 7.12502
rthumb 6.49433 -15.0993
lclavicle 6.70153e-014 -1.43125e-014
lhumerus 8.73019 -48.2977 93.3943
lradius 34.2371
lwrist -13.3158
lhand -5.53029 32.9218
lfingers 7.12502
lthumb 20.2838 -298.117
rfemur -30.4463 5.13407 27.7276
rtibia 42.4797
rfoot 1.51358 5.67009
rtoes 30.0606
lfemur 2.52067 0.888229 -29.6226
ltibia 46.7353
lfoot -22.1392 -11.7332
ltoes 16.3504
683
root 2.65305 16.6166 8.42634 -6.17448 26.08 1.6719
lowerback 5.75606 -8.23604 -5.48368
upperback 0.336982 -11.2425 4.49855
thorax -0.873204 -5.63923 8.27084
lowerneck -4.20834 -7.33196 -14.0653
upperneck 18.872 -10.9959 12.6271
head 7.96785 -5.29108 5.5667
rclavicle 1.50033e-013 -4.6118e-014
rhumerus -36.3771 -26.5236 -41.1541
rradius 42.3636
rwrist -26.9284
rhand -19.0864 14.9402
rfingers 7.12502
rthumb 7.22176 -14.9165
lclavicle 1.50033e-013 -4.6118e-014
lhumerus 7.20948 -42.0219 94.0881
lradius 31.9969
lwrist -15.6777
lhand -5.14137 33.9288
lfingers 7.12502
lthumb 20.6576 -297.151
rfemur -30.6243 5.20604 27.7144
rtibia 42.5116
rfoot 1.62473 5.50753
rtoes 29.042
lfemur 2.30283 0.615956 -29.4401
ltibia 46.9077
lfoot -21.9393 -12.0035
ltoes 17.1097
684
root 2.61556 16.6136 8.41415 -6.07101 26.3213 1.63642
lowerback 6.06063 -8.13642 -5.20149
upperback 0.106251 -11.1004 4.33603
thorax -1.39491 -5.53544 8.02924
lowerneck -3.75111 -7.42804 -14.3861
upperneck 18.8825 -11.2058 12.879
head 7.95358 -5.41184 5.69948
rclavicle -3.23771e-014 1.59028e-015
rhumerus -35.5728 -25.3346 -41.8377
rradius 43.6657
rwrist -26.6333
rhand -17.8702 15.1064
rfingers 7.12502
rthumb 8.39556 -14.7068
lclavicle -3.23771e-014 1.59028e-015
lhumerus 5.46544 -34.4711 95.0019
lradius 30.028
lwrist -19.0259
lhand -5.2051 34.6595
lfingers 7.12502
lthumb 20.5963 -296.413
rfemur -30.8826 5.31054 27.6859
rtibia 42.4431
rfoot 1.8875 5.52634
rtoes 28.234
lfemur 1.96229 0.346981 -29.3352
ltibia 47.0434
lfoot -21.6101 -12.0867
ltoes 17.9224
685
root 2.57827 16.6234 8.41351 -6.01576 26.7848 1.64687
lowerback 6.14379 -8.10902 -5.05312
upperback 0.120807 -11.0587 4.13352
thorax -1.50181 -5.50842 7.75303
lowerneck -3.70881 -7.57199 -14.5073
upperneck 18.9142 -11.448 13.0997
head 8.01412 -5.52 5.77024
rclavicle 1.37335e-013 -3.49861e-014
rhumerus -34.6394 -24.3891 -42.6273
rradius 45.0948
rwrist -25.9393
rhand -16.7213 15.0882
rfingers 7.12502
rthumb 9.50428 -14.6774
lclavicle 1.37335e-013 -3.49861e-014
lhumerus 4.63829 -27.2248 94.9087
lradius 28.5572
lwrist -21.2147
lhand -6.21619 35.6264
lfingers 7.12502
lthumb 19.6245 -295.344
rfemur -30.9238 5.32463 27.5796
rtibia 42.253
rfoot 1.96921 5.37895
rtoes 27.9648
lfemur 1.86273 -0.0203089 -29.2301
ltibia 47.0683
lfoot -21.5975 -12.1892
ltoes 17.561
686
root 2.54861 16.6425 8.41894 -5.94486 27.1946 1.7962
lowerback 6.06168 -8.0249 -4.92444
upperback 0.225131 -10.9389 3.84765
thorax -1.44865 -5.45113 7.36295
lowerneck -3.52467 -7.72614 -14.6611
upperneck 18.7305 -11.7201 13.4392
head 7.99234 -5.64276 5.8859
rclavicle -7.64079e-014 1.90833e-014
rhumerus -33.8956 -23.4538 -43.2683
rradius 46.5753
rwrist -24.8669
rhand -15.5834 15.3783
rfingers 7.12502
rthumb 10.602 -14.3343
lclavicle -7.64079e-014 1.90833e-014
lhumerus 4.13883 -20.1566 94.5113
lradius 27.4376
lwrist -22.5007
lhand -7.90571 36.6529
lfingers 7.12502
lthumb 17.9996 -294.16
rfemur -30.8111 5.27131 27.3555
rtibia 42.0034
rfoot 1.56488 5.92851
rtoes 22.7998
lfemur 1.90391 -0.173678 -29.2235
ltibia 46.9973
lfoot -21.9226 -12.2166
ltoes 15.9473
